<svg width="214" height="46" viewBox="0 0 214 46" fill="none" xmlns="http://www.w3.org/2000/svg">
<g clip-path="url(#clip0_1_444)">
<path d="M0.000732422 13.2591C0.000732422 12.9422 0.142193 12.7838 0.425114 12.7838H1.82579C1.92473 12.7837 2.02211 12.8085 2.10895 12.856C2.21958 12.927 2.30506 13.0311 2.3532 13.1536L8.75495 25.8108L9.16637 27.0387L9.03739 25.8014L8.93508 13.2591C8.93032 13.1356 8.9691 13.0144 9.0446 12.9167C9.08496 12.8704 9.13554 12.8341 9.19232 12.8108C9.2491 12.7875 9.31052 12.7777 9.37171 12.7824H10.8127C10.9217 12.7782 11.0279 12.8174 11.1081 12.8914C11.185 12.9642 11.2237 13.0824 11.2241 13.2461V30.6973C11.2241 31.0069 11.0738 31.1617 10.7731 31.1617H9.4099C9.3074 31.1591 9.20666 31.1345 9.11449 31.0895C8.9996 31.0275 8.91235 30.9243 8.87023 30.8006L2.50811 18.3233L2.05779 17.0607L2.2019 18.3363L2.27611 30.6828C2.27611 31.0006 2.13897 31.1595 1.8647 31.1595H0.423673C0.141713 31.1595 0.000732422 31.0006 0.000732422 30.6828V13.2591Z" fill="#0F1826"/>
<path d="M26.6077 30.67C26.6589 30.8145 26.6531 30.9337 26.589 31.024C26.556 31.0687 26.5123 31.1046 26.462 31.1282C26.4116 31.1517 26.3562 31.1624 26.3008 31.159H24.6422C24.5431 31.1578 24.4459 31.1315 24.3597 31.0825C24.308 31.05 24.2639 31.0066 24.2306 30.9553C24.1972 30.9041 24.1754 30.8462 24.1666 30.7856L23.3042 27.3965H17.7505L16.9017 30.7856C16.8929 30.8461 16.8712 30.9039 16.838 30.9552C16.8047 31.0064 16.7609 31.0498 16.7093 31.0825C16.6228 31.1314 16.5255 31.1577 16.4262 31.159H14.7711C14.7163 31.1631 14.6614 31.1527 14.6117 31.129C14.5621 31.1054 14.5194 31.0692 14.488 31.024C14.4576 30.9707 14.4394 30.9112 14.4349 30.8499C14.4305 30.7887 14.4397 30.7272 14.462 30.67L19.3615 13.169C19.3882 13.0482 19.4538 12.9396 19.5481 12.8599C19.6279 12.8 19.7252 12.7682 19.8248 12.7696H21.2514C21.3529 12.7691 21.452 12.8007 21.5346 12.8599C21.6317 12.9382 21.6995 13.0471 21.727 13.169L26.6077 30.67ZM18.3016 25.231H22.7623L20.7305 17.1641L20.5381 15.7982L20.345 17.1641L18.3016 25.231Z" fill="#0F1826"/>
<path d="M34.5232 13.245C34.5232 13.0738 34.5657 12.9561 34.6522 12.8838C34.7273 12.8191 34.8227 12.7828 34.9217 12.7812H36.4643C36.6358 12.7812 36.7525 12.826 36.8181 12.9163C36.8886 13.0302 36.9224 13.1632 36.9146 13.297L36.9017 26.9184C36.9105 27.5588 36.7902 28.1944 36.5479 28.7871C36.332 29.3195 36.0088 29.8015 35.5984 30.2029C35.188 30.6042 34.6993 30.9163 34.163 31.1194C33.6014 31.3366 33.004 31.4459 32.4021 31.4416C31.742 31.4436 31.0881 31.3142 30.4783 31.0609C29.905 30.8354 29.3884 30.4859 28.9652 30.0374C28.8734 29.9419 28.8033 29.8275 28.7599 29.7022C28.7087 29.5643 28.7426 29.4357 28.8629 29.3151L29.698 28.3356C29.8183 28.2157 29.9357 28.1688 30.0517 28.1911C30.1743 28.2211 30.2844 28.2888 30.3666 28.3847C30.5997 28.5951 30.8618 28.7707 31.1448 28.9062C31.4987 29.0793 31.8887 29.1655 32.2824 29.1576C32.5923 29.1609 32.8992 29.0973 33.1824 28.9712C33.4525 28.8494 33.6936 28.6714 33.8899 28.449C34.0948 28.2108 34.2519 27.9351 34.3525 27.6371C34.4664 27.3011 34.5226 26.9482 34.5189 26.5934L34.5232 13.245Z" fill="#0F1826"/>
<path d="M40.4473 18.7111C40.4424 17.8938 40.5639 17.0807 40.8076 16.3008C41.0327 15.5734 41.3973 14.8972 41.8811 14.3101C42.365 13.7326 42.9709 13.2703 43.655 12.9564C44.3616 12.6256 45.1823 12.4605 46.117 12.4609C47.0422 12.4609 47.8587 12.6261 48.5668 12.9564C49.2511 13.271 49.8599 13.7297 50.3515 14.3014C50.8444 14.8838 51.2163 15.5592 51.4452 16.2878C51.6928 17.0667 51.8163 17.8799 51.8112 18.6974V25.2575C51.8161 26.074 51.6926 26.8863 51.4452 27.6643C51.2169 28.3912 50.8477 29.0657 50.3587 29.6492C49.8689 30.2239 49.2591 30.6838 48.5725 30.9963C47.8602 31.3271 47.0405 31.4925 46.1134 31.4925C45.1864 31.4925 44.3722 31.3274 43.6709 30.997C42.9891 30.6822 42.3838 30.2226 41.897 29.6499C41.4089 29.066 41.0406 28.3912 40.8133 27.6643C40.5656 26.8854 40.4421 26.0721 40.4473 25.2546V18.7111ZM42.825 25.4121C42.8209 25.9182 42.8921 26.4221 43.0361 26.9073C43.165 27.3466 43.3792 27.7561 43.6666 28.1121C43.9464 28.4529 44.2974 28.728 44.6947 28.9182C45.1392 29.1231 45.6243 29.2241 46.1134 29.2136C46.6051 29.2239 47.0927 29.1229 47.54 28.9182C47.9412 28.7283 48.2965 28.4532 48.5812 28.1121C48.8715 27.7597 49.0879 27.3521 49.2174 26.9138C49.3637 26.4313 49.4366 25.9294 49.4335 25.4251V18.5306C49.4382 18.0304 49.3653 17.5326 49.2174 17.0549C49.0833 16.6167 48.8676 16.2079 48.5819 15.85C48.3007 15.5046 47.9472 15.2252 47.5465 15.0317C47.0994 14.8327 46.6159 14.7294 46.1267 14.7283C45.6375 14.7272 45.1535 14.8283 44.7055 15.0252C44.3044 15.2147 43.9508 15.4922 43.6709 15.837C43.3833 16.1951 43.168 16.6057 43.0368 17.0462C42.8935 17.527 42.8223 18.0266 42.8257 18.5284L42.825 25.4121Z" fill="#0F1826"/>
<path d="M53.9939 13.2192C53.9895 13.1599 53.9969 13.1002 54.0157 13.0438C54.0345 12.9874 54.0643 12.9353 54.1034 12.8905C54.1397 12.8544 54.1829 12.8261 54.2305 12.8073C54.2781 12.7885 54.329 12.7798 54.3801 12.7815H64.6892C64.7383 12.7807 64.7869 12.79 64.8323 12.8087C64.8776 12.8275 64.9187 12.8553 64.9529 12.8905C64.9923 12.9351 65.0223 12.9872 65.0413 13.0436C65.0602 13.1001 65.0677 13.1598 65.0632 13.2192V14.6494C65.0632 14.7938 65.0271 14.9007 64.9536 14.965C64.881 15.0294 64.7868 15.0639 64.6899 15.0618H60.7177V30.7231C60.7266 30.8419 60.6894 30.9596 60.614 31.0517C60.5794 31.088 60.5374 31.1165 60.491 31.1353C60.4445 31.1542 60.3946 31.1628 60.3445 31.1608H58.7226C58.6705 31.1637 58.6184 31.1555 58.5697 31.1367C58.521 31.1179 58.4769 31.0889 58.4402 31.0517C58.3644 30.9598 58.3272 30.842 58.3365 30.7231V15.0647H54.3801C54.2791 15.0683 54.1803 15.0338 54.1034 14.9679C54.0314 14.9036 53.9939 14.7989 53.9939 14.6523V13.2192Z" fill="#0F1826"/>
<path d="M145.765 13.2192C145.761 13.1599 145.768 13.1003 145.787 13.0439C145.805 12.9874 145.835 12.9353 145.874 12.8905C145.91 12.8545 145.954 12.8262 146.001 12.8075C146.049 12.7887 146.1 12.7798 146.151 12.7814H156.461C156.51 12.7807 156.558 12.7899 156.604 12.8087C156.649 12.8274 156.69 12.8553 156.724 12.8905C156.763 12.9353 156.793 12.9874 156.812 13.0439C156.83 13.1003 156.838 13.1599 156.833 13.2192V14.6493C156.833 14.7938 156.797 14.9007 156.724 14.965C156.652 15.0292 156.557 15.0638 156.461 15.0618H152.488V30.723C152.497 30.8418 152.461 30.9595 152.385 31.0517C152.351 31.088 152.309 31.1165 152.262 31.1353C152.216 31.1541 152.166 31.1628 152.116 31.1608H150.496C150.444 31.1636 150.392 31.1554 150.343 31.1366C150.294 31.1178 150.25 31.0889 150.213 31.0517C150.138 30.9595 150.101 30.8418 150.11 30.723V15.0647H146.151C146.05 15.0681 145.951 15.0336 145.874 14.9679C145.802 14.9036 145.765 14.7989 145.765 14.6522V13.2192Z" fill="#0F1826"/>
<path d="M169.665 30.67C169.717 30.8145 169.71 30.9337 169.646 31.024C169.613 31.0688 169.57 31.1047 169.519 31.1283C169.469 31.1519 169.413 31.1625 169.358 31.159H167.701C167.601 31.1578 167.504 31.1315 167.418 31.0825C167.366 31.0498 167.322 31.0064 167.289 30.9552C167.256 30.9039 167.234 30.8461 167.225 30.7856L166.361 27.3965H160.807L159.958 30.7856C159.949 30.8461 159.928 30.9039 159.894 30.9552C159.861 31.0064 159.817 31.0498 159.766 31.0825C159.679 31.1314 159.582 31.1577 159.483 31.159H157.825C157.771 31.1633 157.716 31.153 157.666 31.1293C157.616 31.1056 157.574 31.0693 157.542 31.024C157.512 30.9707 157.493 30.9112 157.489 30.85C157.484 30.7887 157.494 30.7272 157.516 30.67L162.416 13.169C162.442 13.0481 162.508 12.9394 162.602 12.8599C162.682 12.8 162.778 12.7682 162.878 12.7696H164.306C164.407 12.7689 164.506 12.8005 164.588 12.8599C164.686 12.9379 164.754 13.0469 164.781 13.169L169.665 30.67ZM161.361 25.231H165.822L163.79 17.1641L163.597 15.7982L163.405 17.1641L161.361 25.231Z" fill="#0F1826"/>
<path d="M172.548 13.3482C172.54 13.2067 172.584 13.0672 172.669 12.9545C172.715 12.904 172.772 12.8648 172.836 12.8397C172.899 12.8147 172.967 12.8045 173.035 12.8101H174.681C175.007 12.8101 175.17 12.9906 175.17 13.3518V15.5549C175.175 15.7971 175.126 16.0374 175.025 16.2577C174.937 16.4436 174.808 16.6067 174.646 16.7344C174.484 16.8611 174.298 16.9552 174.1 17.0118C173.895 17.0717 173.683 17.1021 173.47 17.1021C173.204 17.1021 173.071 16.9944 173.071 16.7792V16.2497C173.068 16.2064 173.077 16.163 173.098 16.1247C173.118 16.0864 173.149 16.0546 173.187 16.033C173.27 15.9882 173.363 15.9658 173.458 15.968C173.503 15.9732 173.55 15.9678 173.593 15.9523C173.636 15.9367 173.675 15.9115 173.708 15.8785C173.76 15.803 173.785 15.7122 173.78 15.6206C173.787 15.5369 173.767 15.4532 173.722 15.3822C173.694 15.3551 173.661 15.3345 173.624 15.322C173.587 15.3095 173.548 15.3054 173.509 15.31H172.983C172.869 15.3123 172.759 15.2706 172.674 15.1937C172.589 15.1164 172.546 14.9922 172.546 14.8195L172.548 13.3482Z" fill="#0F1826"/>
<path d="M179.671 13.258C179.671 12.9402 179.812 12.7812 180.095 12.7812H181.626C181.908 12.7812 182.05 12.9402 182.05 13.258V28.8904H188.054C188.159 28.8853 188.262 28.9202 188.343 28.9879C188.415 29.0522 188.452 29.1569 188.452 29.3028V30.7207C188.457 30.78 188.449 30.8397 188.43 30.8961C188.412 30.9526 188.382 31.0047 188.343 31.0494C188.304 31.0863 188.259 31.1152 188.21 31.134C188.16 31.1529 188.107 31.1615 188.054 31.1591H180.095C179.812 31.1591 179.671 31.0002 179.671 30.6824V13.258Z" fill="#0F1826"/>
<path d="M192.259 13.258C192.259 12.9402 192.403 12.7812 192.696 12.7812H194.225C194.5 12.7812 194.637 12.9402 194.637 13.258V30.6817C194.637 30.9995 194.5 31.1584 194.225 31.1584H192.696C192.404 31.1584 192.259 30.9995 192.259 30.6817V13.258Z" fill="#0F1826"/>
<path d="M202.455 18.4126L201.992 16.7375L202.147 18.3989L202.248 30.6963C202.266 31.0055 202.137 31.16 201.864 31.16H200.359C200.221 31.16 200.127 31.1174 200.076 31.0315C200.02 30.9247 199.993 30.8047 199.999 30.684V13.1939C200.001 13.0815 200.04 12.9729 200.108 12.884C200.143 12.8448 200.185 12.814 200.233 12.7939C200.281 12.7739 200.333 12.7652 200.385 12.7684H202.197C202.242 12.7639 202.287 12.771 202.329 12.7889C202.37 12.8069 202.407 12.8351 202.434 12.871C202.491 12.9596 202.536 13.055 202.57 13.1549L206.793 24.3927L206.999 25.4624L207.205 24.3789L211.456 13.1534C211.488 13.0535 211.534 12.9581 211.59 12.8695C211.618 12.8336 211.655 12.8053 211.696 12.7874C211.738 12.7694 211.784 12.7624 211.829 12.767H213.617C213.669 12.7637 213.72 12.7725 213.768 12.7925C213.816 12.8126 213.858 12.8434 213.892 12.8825C213.96 12.9714 213.999 13.0801 214.001 13.1924V30.6819C214.019 30.9997 213.904 31.1583 213.655 31.1579H212.147C211.892 31.1579 211.765 31.0033 211.765 30.6941L211.879 18.4148L212.023 16.791L211.587 18.4148L207.984 27.9125C207.959 28.0251 207.906 28.1294 207.83 28.2159C207.763 28.2746 207.675 28.3047 207.586 28.2997H206.427C206.342 28.3033 206.259 28.2732 206.196 28.2159C206.12 28.1294 206.067 28.0251 206.042 27.9125L202.455 18.4126Z" fill="#0F1826"/>
<path d="M139.664 13.8509L137.845 14.1673C134.14 14.8124 130.692 15.7967 127.554 16.9553V6.97317L126.586 7.41088C124.385 8.40349 122.299 9.4407 120.31 10.5339L120.243 0.075716L119.19 0.751978C114.067 4.0389 109.369 7.7739 105.174 11.8854C101.133 8.04772 96.5789 4.32102 91.5785 0.769611L90.4943 0V10.8399C88.3281 9.61703 86.1072 8.50306 83.8398 7.50734L82.8724 7.08208L82.9178 16.3641C79.5993 15.219 76.2581 14.4712 72.9468 14.133L71.3175 13.9671L84.3602 30.3426L84.3024 18.3555C86.544 19.2341 88.6183 20.237 90.4954 21.2711V31.6484L90.6306 31.832C94.4654 37.0181 104.554 45.4537 104.981 45.8105L105.418 46.1746L105.857 45.8126C106.285 45.4599 116.38 37.1114 120.218 31.7231L120.444 31.3352L120.382 21.6736C122.146 20.7422 124.085 19.8211 126.181 18.9685V30.3934L139.664 13.8509ZM127.554 18.4292C130.223 17.4189 133.127 16.5332 136.23 15.8828L127.554 26.5267V18.4292ZM74.4657 15.7117C77.463 16.1452 80.2962 16.8993 82.923 17.839L82.9643 26.3815L74.4657 15.7117ZM118.875 2.60133L118.888 11.3336C115.819 13.1031 112.983 15.0219 110.318 17.1399C109.737 16.4989 109.14 15.859 108.527 15.22C107.759 14.4193 106.966 13.6238 106.154 12.8313C109.982 9.08182 114.211 5.68288 118.875 2.60133ZM95.7705 22.8871C94.486 22.0169 93.183 21.2058 91.8676 20.4548V13.2452C94.4169 14.7937 96.8825 16.4989 99.249 18.3514C98.0451 19.8149 96.8846 21.3271 95.7705 22.8871ZM100.316 19.1998C101.657 20.2879 102.965 21.4236 104.237 22.6039C103.008 23.8486 101.81 25.1545 100.634 26.5277C99.5453 25.6285 98.2939 24.6576 96.8959 23.6661C97.9904 22.132 99.1292 20.6426 100.316 19.1998ZM109.257 17.9998C107.867 19.1511 106.524 20.3584 105.216 21.6331C103.914 20.4227 102.575 19.2589 101.201 18.1439C102.478 16.6452 103.806 15.1951 105.189 13.7928C106.621 15.1869 107.978 16.5892 109.257 17.9998ZM109.05 27.482C107.209 28.9662 105.937 30.1663 105.279 30.8156C104.646 30.1497 103.427 28.9226 101.686 27.4176C102.845 26.0651 104.028 24.7779 105.24 23.552C106.552 24.8142 107.822 26.1242 109.05 27.482ZM100.795 28.4756C103.316 30.66 104.727 32.2479 104.749 32.2718L105.249 32.8392L105.765 32.2863C105.786 32.2635 107.261 30.6963 109.969 28.5161C110.831 29.5035 111.67 30.5148 112.486 31.5478L105.463 38.2181L98.3311 31.5955C99.1437 30.5179 99.9635 29.4786 100.795 28.4756ZM106.218 22.5822C107.5 21.3365 108.817 20.1561 110.177 19.0308C111.573 20.6208 112.87 22.2181 114.062 23.8175C113.934 23.9025 113.808 23.9866 113.685 24.0695C112.361 24.9595 111.174 25.8235 110.134 26.6263C108.873 25.2291 107.567 23.8808 106.218 22.5822ZM111.24 18.1719C113.635 16.2749 116.17 14.5407 118.893 12.932L118.905 20.9019C117.566 21.6342 116.333 22.3664 115.216 23.0728C113.998 21.4381 112.672 19.8035 111.24 18.1719ZM91.8676 2.67497C96.4148 5.96915 100.542 9.37639 104.206 12.849C103.49 13.575 102.787 14.3104 102.102 15.0582C101.434 15.7884 100.778 16.5342 100.134 17.2914C97.4927 15.2221 94.7307 13.3313 91.8676 11.6354V2.67497ZM86.2765 17.6627C85.6168 17.3806 84.9549 17.113 84.2921 16.8619L84.2549 9.20629C86.3798 10.1771 88.4613 11.2537 90.4923 12.4289V19.6946C89.0974 18.9478 87.69 18.2684 86.2765 17.6627ZM94.9796 24.0146C93.8954 25.5859 92.8567 27.1998 91.8686 28.8542V22.0522C92.9889 22.7118 94.0297 23.3736 94.9796 24.0146ZM105.421 44.3792C103.465 42.7196 95.4638 35.8388 92.0028 31.3653C93.2894 29.0876 94.6564 26.899 96.105 24.7956C97.4607 25.7581 98.6801 26.7051 99.7436 27.5857C98.7689 28.7629 97.8086 29.9879 96.8577 31.2657L96.487 31.7636L105.473 40.109L114.34 31.6878L113.956 31.1931C113.02 29.9868 112.051 28.8096 111.053 27.6635C112.054 26.8918 113.19 26.0651 114.45 25.2188C114.589 25.1244 114.733 25.0289 114.877 24.9335C116.385 27.0432 117.711 29.1571 118.846 31.2647C115.401 35.8854 107.382 42.731 105.421 44.3792ZM118.916 28.5959C118.045 27.1303 117.083 25.6606 116.03 24.1888C116.917 23.6298 117.878 23.0541 118.907 22.4764L118.916 28.5959ZM120.37 20.1229L120.318 12.1084C122.18 11.0619 124.128 10.0672 126.179 9.11502V17.4822C124.089 18.3099 122.147 19.2081 120.37 20.1229Z" fill="#BA8D5B"/>
</g>
<defs>
<clipPath id="clip0_1_444">
<rect width="214" height="46" fill="white"/>
</clipPath>
</defs>
</svg>
