<svg width="12" height="12" viewBox="0 0 12 12" fill="none" xmlns="http://www.w3.org/2000/svg">
<path fill-rule="evenodd" clip-rule="evenodd" d="M11.6 5.9999C11.6 9.0927 9.0928 11.5999 6 11.5999C2.9072 11.5999 0.399994 9.0927 0.399994 5.9999C0.399994 2.90711 2.9072 0.399902 6 0.399902C9.0928 0.399902 11.6 2.90711 11.6 5.9999ZM6.7 3.1999C6.7 3.5865 6.3866 3.8999 6 3.8999C5.6134 3.8999 5.3 3.5865 5.3 3.1999C5.3 2.8133 5.6134 2.4999 6 2.4999C6.3866 2.4999 6.7 2.8133 6.7 3.1999ZM5.3 5.2999C4.9134 5.2999 4.6 5.6133 4.6 5.9999C4.6 6.3865 4.9134 6.6999 5.3 6.6999V8.7999C5.3 9.1865 5.6134 9.4999 6 9.4999H6.7C7.0866 9.4999 7.4 9.1865 7.4 8.7999C7.4 8.4133 7.0866 8.0999 6.7 8.0999V5.9999C6.7 5.6133 6.3866 5.2999 6 5.2999H5.3Z" fill="#FB4141"/>
</svg>
